<?xml version="1.0" encoding="UTF-8" standalone="no"?>
<!DOCTYPE svg PUBLIC "-//W3C//DTD SVG 1.1//EN" "http://www.w3.org/Graphics/SVG/1.1/DTD/svg11.dtd">
<svg width="100%" height="100%" viewBox="0 0 24 24" version="1.1" xmlns="http://www.w3.org/2000/svg" xmlns:xlink="http://www.w3.org/1999/xlink" xml:space="preserve" xmlns:serif="http://www.serif.com/" style="fill-rule:evenodd;clip-rule:evenodd;stroke-linejoin:round;stroke-miterlimit:2;">
    <g>
        <g>
            <g transform="matrix(-1,-7.65714e-16,7.65714e-16,-1,24,24)">
                <rect x="0" y="0" width="24" height="24" style="fill-opacity:0;"/>
            </g>
            <g transform="matrix(-1,-7.65714e-16,7.65714e-16,-1,24,24)">
                <rect x="0" y="0" width="24" height="24" style="fill-opacity:0;"/>
            </g>
            <path d="M13,22L9,22C8.451,22 8,21.549 8,21L8,14.8L6,14.8C5.451,14.8 5,14.349 5,13.8L5,10.2C5,9.651 5.451,9.2 6,9.2L8,9.2L8,7.5C8.145,4.349 10.848,1.871 14,2L17,2C17.549,2 18,2.451 18,3L18,6.6C18,7.149 17.549,7.6 17,7.6L14,7.6L14,9.2L17,9.2C17.313,9.198 17.609,9.342 17.8,9.59C17.989,9.842 18.048,10.168 17.96,10.47L16.96,14.07C16.836,14.514 16.42,14.817 15.96,14.8L14,14.8L14,21C14,21.549 13.549,22 13,22ZM10,20L12,20L12,13.8C12,13.251 12.451,12.8 13,12.8L15.24,12.8L15.68,11.2L13,11.2C12.451,11.2 12,10.749 12,10.2L12,7.5C12.053,6.441 12.94,5.599 14,5.6L16,5.6L16,4L14,4C11.946,3.875 10.149,5.448 10,7.5L10,10.2C10,10.749 9.549,11.2 9,11.2L7,11.2L7,12.8L9,12.8C9.549,12.8 10,13.251 10,13.8L10,20Z" style="fill:white;fill-rule:nonzero;"/>
        </g>
    </g>
</svg>
