<?xml version="1.0" encoding="UTF-8" standalone="no"?>
<!DOCTYPE svg PUBLIC "-//W3C//DTD SVG 1.1//EN" "http://www.w3.org/Graphics/SVG/1.1/DTD/svg11.dtd">
<svg width="100%" height="100%" viewBox="0 0 24 24" version="1.1" xmlns="http://www.w3.org/2000/svg" xmlns:xlink="http://www.w3.org/1999/xlink" xml:space="preserve" xmlns:serif="http://www.serif.com/" style="fill-rule:evenodd;clip-rule:evenodd;stroke-linejoin:round;stroke-miterlimit:2;">
    <g>
        <g>
            <path d="M0,0L24,0L24,24L0,24" style="fill-opacity:0;fill-rule:nonzero;"/>
            <path d="M8.51,20L8.43,20C6.818,19.986 5.23,19.614 3.78,18.91C3.234,18.654 2.917,18.067 3,17.47C3.091,16.869 3.56,16.391 4.16,16.29C5.059,16.17 5.923,15.867 6.7,15.4C3.956,13.254 2.605,9.764 3.19,6.33C3.269,5.785 3.661,5.334 4.19,5.18C4.705,5.018 5.269,5.18 5.62,5.59C6.8,7.137 8.566,8.132 10.5,8.34C10.546,7.162 11.052,6.048 11.91,5.24C12.742,4.444 13.85,3.999 15.002,3.999C16.245,3.999 17.434,4.518 18.28,5.43C18.494,5.62 18.805,5.659 19.06,5.53C19.245,5.443 19.448,5.397 19.653,5.397C20.415,5.397 21.043,6.025 21.043,6.787C21.043,6.903 21.029,7.018 21,7.13C20.769,8.08 20.332,8.968 19.72,9.73C19.441,15.613 14.395,20.236 8.51,20ZM8.5,18L8.59,18C8.691,18.003 8.791,18.005 8.892,18.005C13.641,18.005 17.575,14.157 17.68,9.41C17.697,9.091 17.828,8.789 18.05,8.56C18.294,8.251 18.502,7.916 18.67,7.56C17.942,7.561 17.246,7.252 16.76,6.71C16.293,6.247 15.658,5.991 15,6C14.336,5.983 13.691,6.231 13.21,6.69C12.557,7.31 12.282,8.234 12.49,9.11L12.75,10.25L11.58,10.33C9.155,10.528 6.762,9.649 5.04,7.93C4.966,10.61 6.412,13.114 8.77,14.39L9.72,14.93L9.09,15.83C8.409,16.723 7.475,17.392 6.41,17.75C7.093,17.921 7.796,18.005 8.5,18Z" style="fill:white;fill-rule:nonzero;"/>
        </g>
    </g>
</svg>
